# xmcd
#
# Track frame offsets:
#	150
#	11495
#	22938
#	36193
#	49560
#	67096
#	79423
#	91080
#	100566
#	109725
#
# Disc length: 1647 seconds
#
# Revision: 0
# Processed by: cddbd v1.5.2PL0 Copyright (c) Steve Scherf et al.
# Submitted via: audiograbber 1.82.02
#
DISCID=6e066d0a
DTITLE=Crystal Gayle - A Woman's Heart
DYEAR=1978
DGENRE=Country
TTITLE0=Hello I Love You
TTITLE1=A Woman's Heart
TTITLE2=Loving You So Long Now
TTITLE3=Hands
TTITLE4=One More Time
TTITLE5=This Is My Year For Mexico
TTITLE6=Sweet Baby On My Mind
TTITLE7=Before I'm Fool Enough
TTITLE8=Let's Do It Right
TTITLE9=Make A Dream Come True
EXTD=dream`master
EXTT0=
EXTT1=
EXTT2=
EXTT3=
EXTT4=
EXTT5=
EXTT6=
EXTT7=
EXTT8=
EXTT9=
PLAYORDER=
